{"scene":0,"asset":{"generator":"ImageToStl.com","version":"2.0"},"scenes":[{"name":"Scene","nodes":[0]}],"nodes":[{"name":"Node0","children":[1]},{"name":"Node1","mesh":0,"NodeMesh":{"CalculatedWidth":31.5,"CalculatedHeight":1.9,"CalculatedDepth":18.7,"MaxDimension":31.5},"translation":[-15.75,0,-9.35]}],"materials":[{"name":"palette","pbrMetallicRoughness":{"baseColorFactor":[1,1,1,1],"metallicFactor":0,"roughnessFactor":1,"baseColorTexture":{"index":0}},"doubleSided":true}],"images":[{"bufferView":0,"name":"","mimeType":"image/png"}],"textures":[{"sampler":0,"source":0}],"samplers":[{"magFilter":9729,"minFilter":9987}],"meshes":[{"name":"Mesh0","primitives":[{"indices":3,"material":0,"attributes":{"POSITION":0,"NORMAL":1,"TEXCOORD_0":2}}]}],"accessors":[{"bufferView":1,"componentType":5126,"count":188,"type":"VEC3","min":[13.9,0,7.5],"max":[17.6,1.9,11.2]},{"bufferView":2,"componentType":5126,"count":188,"type":"VEC3"},{"bufferView":3,"componentType":5126,"count":188,"type":"VEC2"},{"bufferView":4,"componentType":5123,"count":1080,"type":"SCALAR"}],"bufferViews":[{"buffer":0,"byteLength":972,"byteOffset":0},{"buffer":0,"byteLength":2256,"byteOffset":972},{"buffer":0,"byteLength":2256,"byteOffset":3228},{"buffer":0,"byteLength":1504,"byteOffset":5484},{"buffer":0,"byteLength":2160,"byteOffset":6988}],"buffers":[{"byteLength":9148,"uri":"data:application/octet-stream;base64,"}]}