{"scene":0,"asset":{"generator":"ImageToStl.com","version":"2.0"},"scenes":[{"name":"Scene","nodes":[0]}],"nodes":[{"name":"Node0","children":[1]},{"name":"Node1","mesh":0,"NodeMesh":{"CalculatedWidth":12.100000000000001,"CalculatedHeight":0.6,"CalculatedDepth":0.30000000000000004,"MaxDimension":12.100000000000001},"translation":[6.050000000000001,0,0.05]}],"materials":[{"name":"palette","pbrMetallicRoughness":{"baseColorFactor":[1,1,1,1],"metallicFactor":0,"roughnessFactor":1,"baseColorTexture":{"index":0}},"doubleSided":true}],"images":[{"bufferView":0,"name":"","mimeType":"image/png"}],"textures":[{"sampler":0,"source":0}],"samplers":[{"magFilter":9729,"minFilter":9987}],"meshes":[{"name":"Mesh0","primitives":[{"indices":3,"material":0,"attributes":{"POSITION":0,"NORMAL":1,"TEXCOORD_0":2}}]}],"accessors":[{"bufferView":1,"componentType":5126,"count":92,"type":"VEC3","min":[-6.2,0,-0.2],"max":[-5.9,0.6,0.1]},{"bufferView":2,"componentType":5126,"count":92,"type":"VEC3"},{"bufferView":3,"componentType":5126,"count":92,"type":"VEC2"},{"bufferView":4,"componentType":5123,"count":468,"type":"SCALAR"}],"bufferViews":[{"buffer":0,"byteLength":972,"byteOffset":0},{"buffer":0,"byteLength":1104,"byteOffset":972},{"buffer":0,"byteLength":1104,"byteOffset":2076},{"buffer":0,"byteLength":736,"byteOffset":3180},{"buffer":0,"byteLength":936,"byteOffset":3916}],"buffers":[{"byteLength":4852,"uri":"data:application/octet-stream;base64,"}]}