{"scene":0,"asset":{"generator":"ImageToStl.com","version":"2.0"},"scenes":[{"name":"Scene","nodes":[0]}],"nodes":[{"name":"Node0","children":[1]},{"name":"Node1","mesh":0,"NodeMesh":{"CalculatedWidth":22.5,"CalculatedHeight":0.8,"CalculatedDepth":0.4,"MaxDimension":22.5},"translation":[11.25,0,0]}],"materials":[{"name":"palette","pbrMetallicRoughness":{"baseColorFactor":[1,1,1,1],"metallicFactor":0,"roughnessFactor":1,"baseColorTexture":{"index":0}},"doubleSided":true}],"images":[{"bufferView":0,"name":"","mimeType":"image/png"}],"textures":[{"sampler":0,"source":0}],"samplers":[{"magFilter":9729,"minFilter":9987}],"meshes":[{"name":"Mesh0","primitives":[{"indices":3,"material":0,"attributes":{"POSITION":0,"NORMAL":1,"TEXCOORD_0":2}}]}],"accessors":[{"bufferView":1,"componentType":5126,"count":358,"type":"VEC3","min":[-11.6,0,-0.2],"max":[-10.9,0.8,0.2]},{"bufferView":2,"componentType":5126,"count":358,"type":"VEC3"},{"bufferView":3,"componentType":5126,"count":358,"type":"VEC2"},{"bufferView":4,"componentType":5123,"count":1944,"type":"SCALAR"}],"bufferViews":[{"buffer":0,"byteLength":972,"byteOffset":0},{"buffer":0,"byteLength":4296,"byteOffset":972},{"buffer":0,"byteLength":4296,"byteOffset":5268},{"buffer":0,"byteLength":2864,"byteOffset":9564},{"buffer":0,"byteLength":3888,"byteOffset":12428}],"buffers":[{"byteLength":16316,"uri":"data:application/octet-stream;base64,"}]}