{"scene":0,"asset":{"generator":"ImageToStl.com","version":"2.0"},"scenes":[{"name":"Scene","nodes":[0]}],"nodes":[{"name":"Node0","children":[1]},{"name":"Node1","mesh":0,"NodeMesh":{"CalculatedWidth":19.5,"CalculatedHeight":0.8,"CalculatedDepth":0.6000000000000001,"MaxDimension":19.5},"translation":[9.75,0,-0.1]}],"materials":[{"name":"palette","pbrMetallicRoughness":{"baseColorFactor":[1,1,1,1],"metallicFactor":0,"roughnessFactor":1,"baseColorTexture":{"index":0}},"doubleSided":true}],"images":[{"bufferView":0,"name":"","mimeType":"image/png"}],"textures":[{"sampler":0,"source":0}],"samplers":[{"magFilter":9729,"minFilter":9987}],"meshes":[{"name":"Mesh0","primitives":[{"indices":3,"material":0,"attributes":{"POSITION":0,"NORMAL":1,"TEXCOORD_0":2}}]}],"accessors":[{"bufferView":1,"componentType":5126,"count":517,"type":"VEC3","min":[-10.1,0,-0.2],"max":[-9.4,0.8,0.4]},{"bufferView":2,"componentType":5126,"count":517,"type":"VEC3"},{"bufferView":3,"componentType":5126,"count":517,"type":"VEC2"},{"bufferView":4,"componentType":5123,"count":2826,"type":"SCALAR"}],"bufferViews":[{"buffer":0,"byteLength":972,"byteOffset":0},{"buffer":0,"byteLength":6204,"byteOffset":972},{"buffer":0,"byteLength":6204,"byteOffset":7176},{"buffer":0,"byteLength":4136,"byteOffset":13380},{"buffer":0,"byteLength":5652,"byteOffset":17516}],"buffers":[{"byteLength":23168,"uri":"data:application/octet-stream;base64,"}]}