{"scene":0,"asset":{"generator":"ImageToStl.com","version":"2.0"},"scenes":[{"name":"Scene","nodes":[0]}],"nodes":[{"name":"Node0","children":[1],"rotation":[0,1,0,0]},{"name":"Node1","mesh":0,"NodeMesh":{"CalculatedWidth":8.3,"CalculatedHeight":3.3,"CalculatedDepth":0.8,"MaxDimension":8.3},"translation":[4.15,0,0.1]}],"materials":[{"name":"palette","pbrMetallicRoughness":{"baseColorFactor":[1,1,1,1],"metallicFactor":0,"roughnessFactor":1,"baseColorTexture":{"index":0}},"doubleSided":true}],"images":[{"bufferView":0,"name":"","mimeType":"image/png"}],"textures":[{"sampler":0,"source":0}],"samplers":[{"magFilter":9729,"minFilter":9987}],"meshes":[{"name":"Mesh0","primitives":[{"indices":3,"material":0,"attributes":{"POSITION":0,"NORMAL":1,"TEXCOORD_0":2}}]}],"accessors":[{"bufferView":1,"componentType":5126,"count":444,"type":"VEC3","min":[-5.1,0,-0.5],"max":[-3.2,3.3,0.3]},{"bufferView":2,"componentType":5126,"count":444,"type":"VEC3"},{"bufferView":3,"componentType":5126,"count":444,"type":"VEC2"},{"bufferView":4,"componentType":5123,"count":3672,"type":"SCALAR"}],"bufferViews":[{"buffer":0,"byteLength":972,"byteOffset":0},{"buffer":0,"byteLength":5328,"byteOffset":972},{"buffer":0,"byteLength":5328,"byteOffset":6300},{"buffer":0,"byteLength":3552,"byteOffset":11628},{"buffer":0,"byteLength":7344,"byteOffset":15180}],"buffers":[{"byteLength":22524,"uri":"data:application/octet-stream;base64,"}]}