{"scene":0,"asset":{"generator":"ImageToStl.com","version":"2.0"},"scenes":[{"name":"Scene","nodes":[0]}],"nodes":[{"name":"Node0","children":[1]},{"name":"Node1","mesh":0,"NodeMesh":{"CalculatedWidth":50.2,"CalculatedHeight":11.8,"CalculatedDepth":17.6,"MaxDimension":50.2},"translation":[25.1,0,-8.8]}],"materials":[{"name":"palette","pbrMetallicRoughness":{"baseColorFactor":[1,1,1,1],"metallicFactor":0,"roughnessFactor":1,"baseColorTexture":{"index":0}},"doubleSided":true}],"images":[{"bufferView":0,"name":"","mimeType":"image/png"}],"textures":[{"sampler":0,"source":0}],"samplers":[{"magFilter":9729,"minFilter":9987}],"meshes":[{"name":"Mesh0","primitives":[{"indices":3,"material":0,"attributes":{"POSITION":0,"NORMAL":1,"TEXCOORD_0":2}}]}],"accessors":[{"bufferView":1,"componentType":5126,"count":420,"type":"VEC3","min":[-28.6,0,5.4],"max":[-21.6,11.8,12.2]},{"bufferView":2,"componentType":5126,"count":420,"type":"VEC3"},{"bufferView":3,"componentType":5126,"count":420,"type":"VEC2"},{"bufferView":4,"componentType":5123,"count":2430,"type":"SCALAR"}],"bufferViews":[{"buffer":0,"byteLength":972,"byteOffset":0},{"buffer":0,"byteLength":5040,"byteOffset":972},{"buffer":0,"byteLength":5040,"byteOffset":6012},{"buffer":0,"byteLength":3360,"byteOffset":11052},{"buffer":0,"byteLength":4860,"byteOffset":14412}],"buffers":[{"byteLength":19272,"uri":"data:application/octet-stream;base64,"}]}